<svg width="40" height="40" viewBox="0 0 40 40" fill="none" xmlns="http://www.w3.org/2000/svg">
<g clip-path="url(#clip0)">
<path d="M12.5 0C5.59641 0 0 5.59641 0 12.5C0 19.4036 5.59641 25 12.5 25C12.7212 25.0004 12.9334 24.9129 13.09 24.7566L24.7566 13.09C24.9128 12.9334 25.0004 12.7212 25 12.5C24.9927 5.59945 19.4005 0.00734375 12.5 0Z" fill="#88DDBF"/>
<path d="M25.8334 11.6666C18.0093 11.6666 11.6667 18.0093 11.6667 25.8333C11.6667 33.6573 18.0093 40 25.8334 40C33.6575 40 40 33.6573 40 25.8333C39.9908 18.0131 33.6536 11.6758 25.8334 11.6666Z" fill="#5EB998"/>
<path d="M12.5 36.6667C9.05746 36.4862 6.14817 34.0531 5.36168 30.6967L7.12504 31.5784C7.53692 31.7841 8.03762 31.617 8.2434 31.205C8.4491 30.7932 8.28199 30.2925 7.87004 30.0867L4.53668 28.42C4.51332 28.4084 4.48668 28.41 4.46168 28.4C4.35543 28.3595 4.242 28.3408 4.12832 28.345C4.10168 28.3436 4.07496 28.3436 4.04832 28.345C4.02231 28.3526 3.99676 28.3615 3.97168 28.3717C3.75825 28.4219 3.57317 28.5543 3.45668 28.74C3.44332 28.7617 3.42168 28.7767 3.41004 28.8L1.7434 32.1334C1.53762 32.545 1.7045 33.0456 2.11614 33.2515C2.11637 33.2515 2.11653 33.2517 2.11676 33.2518C2.23614 33.3094 2.36762 33.3375 2.50012 33.3334C2.81606 33.334 3.1052 33.1559 3.24676 32.8734L3.8934 31.58C4.99629 35.458 8.47106 38.1846 12.5 38.3334C12.9603 38.3334 13.3334 37.9603 13.3334 37.5C13.3334 37.0398 12.9603 36.6667 12.5 36.6667Z" fill="#455A64"/>
<path d="M37.8735 6.75163C37.4618 6.54584 36.9613 6.71272 36.7554 7.12436C36.7553 7.12459 36.7552 7.12475 36.7551 7.12499L36.1085 8.41834C35.0048 4.54045 31.5292 1.81452 27.5001 1.66663C27.0399 1.66663 26.6667 2.03975 26.6667 2.49999C26.6667 2.96022 27.0399 3.33334 27.5001 3.33334C30.941 3.51413 33.8492 5.94553 34.6367 9.29999L32.8734 8.41834C32.4615 8.21264 31.9608 8.37975 31.755 8.7917C31.5493 9.20358 31.7164 9.70428 32.1284 9.91006L35.4617 11.5767C35.4734 11.5767 35.4851 11.5767 35.4967 11.5767C35.6012 11.6306 35.716 11.6613 35.8334 11.6667C35.9852 11.6681 36.1342 11.6265 36.2634 11.5467L36.2784 11.5333C36.3885 11.4605 36.4794 11.3622 36.5434 11.2467C36.5534 11.2301 36.5717 11.2233 36.58 11.2067L38.2467 7.87334C38.4539 7.46241 38.2889 6.96131 37.878 6.75397C37.8765 6.75319 37.8749 6.75241 37.8735 6.75163Z" fill="#455A64"/>
<path d="M26.6667 25.0583V20.0583C28.5417 20.2967 30.0001 21.32 30.0001 22.505C30.0001 22.9652 30.3732 23.3383 30.8334 23.3383C31.2937 23.3383 31.6668 22.9652 31.6668 22.505C31.6668 20.3716 29.5252 18.6716 26.6668 18.3966V17.5C26.6668 17.0398 26.2937 16.6666 25.8334 16.6666C25.3732 16.6666 25.0001 17.0398 25.0001 17.5V18.3916C22.1417 18.675 20.0001 20.3666 20.0001 22.5C20.0001 24.6333 22.1417 26.3333 25.0001 26.6083V31.6083C23.1251 31.37 21.6667 30.3467 21.6667 29.1617C21.6667 28.7015 21.2936 28.3283 20.8334 28.3283C20.3731 28.3283 20 28.7015 20 29.1617C20 31.2951 22.1416 32.995 25 33.27V34.1667C25 34.6269 25.3731 35 25.8334 35C26.2936 35 26.6667 34.6269 26.6667 34.1667V33.275C29.5251 32.9916 31.6667 31.3 31.6667 29.1666C31.6667 27.0333 29.5251 25.3333 26.6667 25.0583ZM21.6667 22.5C21.6667 21.315 23.1251 20.2916 25.0001 20.0533V24.9483C23.1251 24.7083 21.6667 23.685 21.6667 22.5ZM26.6667 31.6133V26.72C28.5417 26.9583 30.0001 27.9816 30.0001 29.1666C30.0001 30.3516 28.5417 31.375 26.6667 31.6133Z" fill="#FAFAFA"/>
<path d="M12.5001 20C9.23011 20 6.66675 18.1666 6.66675 15.8334V9.16672C6.66675 6.83336 9.23011 5 12.5001 5C15.7701 5 18.3335 6.83336 18.3335 9.16664C18.3335 9.62687 17.9603 10 17.5001 10C17.0399 10 16.6667 9.62687 16.6667 9.16664C16.6667 7.81164 14.7584 6.66664 12.5001 6.66664C10.2418 6.66664 8.33347 7.81164 8.33347 9.16664V15.8333C8.33347 17.1883 10.2418 18.3333 12.5001 18.3333C12.9603 18.3333 13.3335 18.7064 13.3335 19.1666C13.3335 19.6269 12.9603 20 12.5001 20Z" fill="#ECEFF1"/>
<path d="M14.1666 11.6666H5.83336C5.37313 11.6666 5 11.2935 5 10.8333C5 10.373 5.37313 10 5.83336 10H14.1667C14.627 10 15.0001 10.3731 15.0001 10.8334C15.0001 11.2936 14.6269 11.6666 14.1666 11.6666Z" fill="#ECEFF1"/>
<path d="M14.1666 15H5.83336C5.37313 15 5 14.6268 5 14.1666C5 13.7064 5.37313 13.3333 5.83336 13.3333H14.1667C14.627 13.3333 15.0001 13.7064 15.0001 14.1666C15 14.6268 14.6269 15 14.1666 15Z" fill="#ECEFF1"/>
</g>
<defs>
<clipPath id="clip0">
<rect width="40" height="40" fill="white"/>
</clipPath>
</defs>
</svg>
