<svg width="40" height="40" viewBox="0 0 50 50" fill="none" xmlns="http://www.w3.org/2000/svg">
<path d="M25 2C12.299 2 2 12.298 2 25C2 37.702 12.299 48 25 48C37.701 48 48 37.702 48 25C48 12.298 37.701 2 25 2Z" stroke="#5eb998" stroke-width="2" stroke-miterlimit="10" stroke-linecap="round" stroke-linejoin="round"/>
<path d="M18.71 34.719L14.801 22.657L25.026 15.203L35.253 22.657L31.348 34.719H18.71Z" stroke="#5eb998" stroke-width="2" stroke-miterlimit="10" stroke-linecap="round" stroke-linejoin="round"/>
<path d="M33.7379 3.78796L25.0259 7.50496L16.3159 3.78796" stroke="#5eb998" stroke-width="2" stroke-miterlimit="10" stroke-linecap="round" stroke-linejoin="round"/>
<path d="M7.64594 10.106L8.48294 19.569L2.26294 26.729" stroke="#5eb998" stroke-width="2" stroke-miterlimit="10" stroke-linecap="round" stroke-linejoin="round"/>
<path d="M5.57593 36.957L14.8029 39.082L19.6719 47.228" stroke="#5eb998" stroke-width="2" stroke-miterlimit="10" stroke-linecap="round" stroke-linejoin="round"/>
<path d="M30.3879 47.228L35.2529 39.078L44.4769 36.953" stroke="#5eb998" stroke-width="2" stroke-miterlimit="10" stroke-linecap="round" stroke-linejoin="round"/>
<path d="M47.7931 26.727L41.5681 19.563L42.4041 10.106" stroke="#5eb998" stroke-width="2" stroke-miterlimit="10" stroke-linecap="round" stroke-linejoin="round"/>
<path d="M25.0259 7.505V15.203" stroke="#5eb998" stroke-width="2" stroke-miterlimit="10" stroke-linecap="round" stroke-linejoin="round"/>
<path d="M35.2529 22.956L41.5679 19.563" stroke="#5eb998" stroke-width="2" stroke-miterlimit="10" stroke-linecap="round" stroke-linejoin="round"/>
<path d="M31.3479 34.719L35.2529 39.078" stroke="#5eb998" stroke-width="2" stroke-miterlimit="10" stroke-linecap="round" stroke-linejoin="round"/>
<path d="M18.71 34.719L14.803 39.082" stroke="#5eb998" stroke-width="2" stroke-miterlimit="10" stroke-linecap="round" stroke-linejoin="round"/>
<path d="M8.48291 19.569L14.8009 22.657" stroke="#5eb998" stroke-width="2" stroke-miterlimit="10" stroke-linecap="round" stroke-linejoin="round"/>
</svg>
