<svg width="60" height="40" viewBox="0 0 60 50" fill="none" xmlns="http://www.w3.org/2000/svg">
<path d="M9.88452 50C9.5974 50 9.3259 49.8296 9.18291 49.5421L3.4688 38.0541C3.25624 37.6272 3.39846 37.0918 3.78603 36.8576C4.17195 36.6234 4.65946 36.7797 4.87202 37.2071L9.08451 45.6763V37.6306C9.08451 37.1439 9.44275 36.7492 9.88452 36.7492C10.3263 36.7492 10.6845 37.1439 10.6845 37.6306V49.1186C10.6845 49.521 10.4369 49.8725 10.083 49.9725C10.0169 49.991 9.95012 50 9.88452 50Z" fill="#64798A"/>
<path d="M50.1154 50C50.4026 50 50.6741 49.8296 50.8171 49.5421L56.5312 38.0541C56.7437 37.6272 56.6015 37.0918 56.2139 36.8576C55.828 36.6234 55.3405 36.7797 55.128 37.2071L50.9155 45.6763V37.6306C50.9155 37.1439 50.5572 36.7492 50.1154 36.7492C49.6737 36.7492 49.3154 37.1439 49.3154 37.6306V49.1186C49.3154 49.521 49.5631 49.8725 49.917 49.9725C49.983 49.991 50.0498 50 50.1154 50Z" fill="#64798A"/>
<path d="M58.4 37.6308H1.60002C0.716346 37.6308 0 36.8415 0 35.8679V34.9864C0 34.0128 0.716346 33.2235 1.60002 33.2235H58.4C59.2836 33.2235 60 34.0128 60 34.9864V35.8679C60 36.8415 59.2836 37.6308 58.4 37.6308Z" fill="#D09C9C"/>
<path d="M17.7888 17.4507H10.7144V33.224H17.7888V17.4507Z" fill="#BEBEBE"/>
<path d="M33.5375 11.9109H26.4631V33.2241H33.5375V11.9109Z" fill="#BEBEBE"/>
<path d="M49.2824 11.9109H42.208V33.2241H49.2824V11.9109Z" fill="#64BC9D"/>
<path d="M26.4633 6.17004H17.7888V33.2231H26.4633V6.17004Z" fill="#64BC9D"/>
<path d="M42.2103 0H33.5359V33.2231H42.2103V0Z" fill="#50CFA2"/>
<path d="M42.2094 2.84082H33.5359V4.60372H42.2094V2.84082Z" fill="white"/>
<path d="M42.2094 6.36658H33.5359V8.12948H42.2094V6.36658Z" fill="white"/>
<path d="M49.2967 15.033H42.1919V16.7959H49.2967V15.033Z" fill="white"/>
<path d="M49.2967 28.3354H42.1919V30.0983H49.2967V28.3354Z" fill="white"/>
<path d="M33.5528 15.033H26.448V16.7959H33.5528V15.033Z" fill="#7E8387"/>
<path d="M17.8047 19.6163H10.7V20.4978H17.8047V19.6163Z" fill="#7E8387"/>
<path d="M17.8047 21.3793H10.7V22.2607H17.8047V21.3793Z" fill="#7E8387"/>
<path d="M17.8047 28.4131H10.7V29.2945H17.8047V28.4131Z" fill="#7E8387"/>
<path d="M17.8047 30.176H10.7V31.0575H17.8047V30.176Z" fill="#7E8387"/>
<path d="M33.5528 28.3356H26.448V30.0985H33.5528V28.3356Z" fill="#7E8387"/>
<path d="M26.4624 9.17847H17.7888V10.9414H26.4624V9.17847Z" fill="white"/>
<path d="M26.4624 28.4572H17.7888V30.2201H26.4624V28.4572Z" fill="white"/>
</svg>
