<svg width="76" height="59" viewBox="0 0 76 59" fill="none" xmlns="http://www.w3.org/2000/svg">
<rect opacity="0.9" x="8" width="6" height="59" rx="3" fill="white"/>
<path d="M22.4102 36C21.9766 36 21.6602 35.9004 21.4609 35.7012C21.2617 35.502 21.1621 35.1855 21.1621 34.752V15.3633C21.1621 14.9297 21.2617 14.6191 21.4609 14.4316C21.6602 14.2324 21.9766 14.1328 22.4102 14.1328H28.5977C31.1289 14.1328 32.9922 14.625 34.1875 15.6094C35.3828 16.582 35.9805 17.9297 35.9805 19.6523C35.9805 20.6836 35.6582 21.6328 35.0137 22.5C34.3691 23.3672 33.5605 24 32.5879 24.3984L32.623 24.5215C33.4434 24.6855 34.1699 25.0195 34.8027 25.5234C35.4473 26.0273 35.9453 26.6426 36.2969 27.3691C36.6602 28.0957 36.8418 28.8574 36.8418 29.6543C36.8418 31.7051 36.1914 33.2754 34.8906 34.3652C33.5898 35.4551 31.6387 36 29.0371 36H22.4102ZM28.123 22.834C29.0371 22.834 29.7461 22.6172 30.25 22.1836C30.7656 21.7383 31.0234 21.1758 31.0234 20.4961C31.0234 18.9492 30.0742 18.1758 28.1758 18.1758H25.9785V22.834H28.123ZM29.0371 31.9043C29.9395 31.9043 30.6426 31.6875 31.1465 31.2539C31.6504 30.8086 31.9023 30.1816 31.9023 29.373C31.9023 28.5762 31.6094 27.9727 31.0234 27.5625C30.4492 27.1523 29.6172 26.9473 28.5273 26.9473H25.9785V31.9043H29.0371ZM41.5703 36.0527C40.3164 36.0527 39.6895 35.7246 39.6895 35.0684V15.0645C39.6895 14.7246 39.8418 14.4727 40.1465 14.3086C40.4512 14.1328 40.9258 14.0449 41.5703 14.0449H43.2227C44.2188 14.0449 44.8691 14.332 45.1738 14.9062L50.4297 24.2402L50.6934 24.6973L50.957 24.1523L56.248 14.9062C56.5645 14.332 57.2207 14.0449 58.2168 14.0449H59.8516C61.1055 14.0449 61.7324 14.3848 61.7324 15.0645V35.0684C61.7324 35.7246 61.1055 36.0527 59.8516 36.0527H58.9375C57.6836 36.0527 57.0566 35.7246 57.0566 35.0684V22.1133L56.9336 22.0781L52.3984 30.1816C52.1289 30.5801 51.7129 30.7793 51.1504 30.7793H50.2539C49.9609 30.7793 49.7148 30.7324 49.5156 30.6387C49.3164 30.5332 49.1465 30.3809 49.0059 30.1816L44.4531 22.0781L44.3301 22.1133V35.0684C44.3301 35.7246 43.709 36.0527 42.4668 36.0527H41.5703Z" fill="white"/>
<rect x="19" y="45" width="57" height="6" rx="3" fill="white"/>
<rect x="19" y="53" width="57" height="6" rx="3" fill="white"/>
<rect width="6" height="59" rx="3" fill="white"/>
</svg>
