<svg width="30" height="35" viewBox="0 0 20 20" fill="none" xmlns="http://www.w3.org/2000/svg">
<path d="M10.3941 2.08C10.2696 2.02663 10.1356 1.99911 10.0001 1.99911C9.86467 1.99911 9.73063 2.02663 9.60613 2.08L2.60613 5.08C2.42574 5.15685 2.27192 5.28503 2.16381 5.44861C2.05569 5.61218 1.99805 5.80393 1.99805 6C1.99805 6.19608 2.05569 6.38783 2.16381 6.5514C2.27192 6.71498 2.42574 6.84316 2.60613 6.92L5.25013 8.051C5.34827 7.94 5.46987 7.85221 5.60613 7.794L9.60613 6.08C9.72717 6.02606 9.85773 5.9967 9.99022 5.99365C10.1227 5.99061 10.2545 6.01392 10.3779 6.06224C10.5013 6.11057 10.6138 6.18293 10.709 6.27514C10.8042 6.36735 10.8801 6.47755 10.9323 6.59935C10.9845 6.72115 11.012 6.85211 11.0132 6.98463C11.0143 7.11714 10.9892 7.24857 10.9391 7.37126C10.889 7.49396 10.815 7.60548 10.7215 7.69934C10.6279 7.7932 10.5167 7.86753 10.3941 7.918L7.66713 9.08801L9.60713 9.919C9.73149 9.97223 9.86536 9.99968 10.0006 9.99968C10.1359 9.99968 10.2698 9.97223 10.3941 9.919L17.3941 6.919C17.5739 6.84187 17.7271 6.71369 17.8348 6.55034C17.9425 6.38699 17.9999 6.19565 17.9999 6C17.9999 5.80436 17.9425 5.61302 17.8348 5.44967C17.7271 5.28632 17.5739 5.15814 17.3941 5.081L10.3941 2.081V2.08ZM3.31013 9.39701L5.00013 10.12V14.222C4.65388 14.1433 4.30326 14.0852 3.95013 14.048C3.72227 14.0241 3.50955 13.9226 3.34754 13.7606C3.18554 13.5986 3.08408 13.3859 3.06013 13.158C2.92862 11.8989 3.01317 10.6266 3.31013 9.396V9.39701ZM9.30013 16.573C8.62414 15.9097 7.84798 15.357 7.00013 14.935V10.978L8.81813 11.758C9.19163 11.9181 9.59376 12.0007 10.0001 12.0007C10.4065 12.0007 10.8086 11.9181 11.1821 11.758L16.6901 9.39701C16.9888 10.6274 17.0734 11.9 16.9401 13.159C16.9162 13.3869 16.8147 13.5996 16.6527 13.7616C16.4907 13.9236 16.278 14.0251 16.0501 14.049C14.0327 14.261 12.1467 15.1508 10.7001 16.573C10.5132 16.7562 10.2619 16.8589 10.0001 16.8589C9.73838 16.8589 9.48706 16.7562 9.30013 16.573ZM6.00013 18C6.26535 18 6.5197 17.8946 6.70724 17.7071C6.89477 17.5196 7.00013 17.2652 7.00013 17V14.935C6.36413 14.619 5.69272 14.38 5.00013 14.223V17C5.00013 17.2652 5.10549 17.5196 5.29302 17.7071C5.48056 17.8946 5.73491 18 6.00013 18Z" fill="#5eb998"/>
</svg>
