<svg width="30" height="30" viewBox="0 0 50 50" fill="none" xmlns="http://www.w3.org/2000/svg">
<path d="M25.0001 21.9309H45.2289C45.4521 23.1772 45.5637 24.3677 45.5637 25.5023C45.5637 29.5388 44.7174 33.1428 43.0247 36.3143C41.3319 39.4858 38.9184 41.9644 35.7841 43.7501C32.6498 45.5358 29.0552 46.4287 25.0001 46.4287C22.0797 46.4287 19.2988 45.866 16.6575 44.7406C14.0161 43.6152 11.7375 42.0946 9.82153 40.1787C7.90561 38.2628 6.38496 35.9841 5.25959 33.3427C4.13422 30.7014 3.57153 27.9205 3.57153 25.0001C3.57153 22.0797 4.13422 19.2988 5.25959 16.6575C6.38496 14.0161 7.90561 11.7375 9.82153 9.82153C11.7375 7.90561 14.0161 6.38496 16.6575 5.25959C19.2988 4.13422 22.0797 3.57153 25.0001 3.57153C30.5805 3.57153 35.3703 5.44095 39.3695 9.17979L33.5381 14.7881C31.2501 12.5745 28.4041 11.4677 25.0001 11.4677C22.6006 11.4677 20.3824 12.0723 18.3455 13.2814C16.3087 14.4904 14.695 16.132 13.5046 18.206C12.3141 20.2801 11.7189 22.5447 11.7189 25.0001C11.7189 27.4555 12.3141 29.7202 13.5046 31.7942C14.695 33.8682 16.3087 35.5098 18.3455 36.7189C20.3824 37.9279 22.6006 38.5325 25.0001 38.5325C26.6184 38.5325 28.1065 38.3093 29.4644 37.8628C30.8223 37.4164 31.9383 36.8584 32.8126 36.1887C33.6869 35.5191 34.4495 34.7564 35.1006 33.9008C35.7516 33.0451 36.2306 32.236 36.5375 31.4733C36.8444 30.7107 37.0537 29.9852 37.1653 29.297H25.0001V21.9309Z" fill="white"/>
</svg>
